<svg width="497" height="497" viewBox="0 0 497 497" fill="none" xmlns="http://www.w3.org/2000/svg">
<circle cx="248.5" cy="248.5" r="248.5" fill="white"/>
<path d="M121.909 297.992C115.02 297.992 108.671 296.83 102.861 294.506C97.1344 292.182 92.1132 288.945 87.7975 284.796C83.4817 280.646 80.1619 275.749 77.8381 270.106C75.5142 264.379 74.3523 258.154 74.3523 251.432C74.3523 244.709 75.5142 238.526 77.8381 232.882C80.1619 227.238 83.4817 222.342 87.7975 218.192C92.1132 214.042 97.1344 210.805 102.861 208.482C108.671 206.158 115.02 204.996 121.909 204.996C128.797 204.996 135.105 206.158 140.831 208.482C146.641 210.805 151.704 214.042 156.02 218.192C160.335 222.342 163.655 227.238 165.979 232.882C168.303 238.526 169.465 244.709 169.465 251.432C169.465 258.154 168.303 264.379 165.979 270.106C163.655 275.749 160.335 280.646 156.02 284.796C151.704 288.945 146.641 292.182 140.831 294.506C135.105 296.83 128.797 297.992 121.909 297.992ZM121.909 283.177C127.801 283.177 132.988 281.808 137.47 279.069C141.952 276.33 145.438 272.595 147.928 267.865C150.5 263.051 151.787 257.573 151.787 251.432C151.787 245.29 150.5 239.854 147.928 235.123C145.438 230.392 141.952 226.658 137.47 223.919C132.988 221.18 127.801 219.81 121.909 219.81C116.099 219.81 110.912 221.18 106.347 223.919C101.865 226.658 98.3379 230.392 95.765 235.123C93.2752 239.854 92.0302 245.29 92.0302 251.432C92.0302 257.573 93.2752 263.051 95.765 267.865C98.3379 272.595 101.865 276.33 106.347 279.069C110.912 281.808 116.099 283.177 121.909 283.177ZM243.944 296H227.51V259.773C227.51 254.876 226.39 251.224 224.149 248.817C221.908 246.327 218.879 245.082 215.061 245.082C212.405 245.082 209.874 245.788 207.467 247.199C205.06 248.61 203.11 250.809 201.616 253.797C200.122 256.785 199.375 260.727 199.375 265.624V296H182.942V233.38H199.251V252.801H197.259C198.006 247.24 199.541 242.925 201.865 239.854C204.272 236.7 207.052 234.501 210.206 233.256C213.443 232.011 216.638 231.388 219.792 231.388C227.261 231.388 233.154 233.671 237.47 238.235C241.786 242.8 243.944 249.44 243.944 258.154V296ZM311.619 276.455L320.333 286.539C317.18 290.107 313.113 292.929 308.133 295.004C303.236 296.996 297.8 297.992 291.825 297.992C284.604 297.992 278.255 296.581 272.777 293.759C267.3 290.937 263.025 287.037 259.954 282.057C256.884 277.077 255.348 271.309 255.348 264.752C255.348 258.196 256.801 252.428 259.705 247.448C262.693 242.385 266.719 238.443 271.781 235.621C276.927 232.799 282.695 231.388 289.086 231.388C295.31 231.388 300.83 232.799 305.643 235.621C310.54 238.36 314.358 242.178 317.097 247.074C319.836 251.971 321.205 257.656 321.205 264.13V264.877H305.145V263.134C305.145 259.316 304.44 255.996 303.029 253.174C301.701 250.353 299.834 248.153 297.427 246.576C295.103 244.999 292.323 244.211 289.086 244.211C285.683 244.211 282.695 245.041 280.122 246.701C277.549 248.278 275.516 250.602 274.022 253.672C272.611 256.66 271.906 260.229 271.906 264.379C271.906 268.778 272.777 272.554 274.52 275.708C276.346 278.778 278.794 281.144 281.865 282.804C285.019 284.381 288.629 285.169 292.696 285.169C300.166 285.169 306.473 282.264 311.619 276.455ZM321.205 269.732H265.93V259.275H319.213L321.205 264.13V269.732ZM420.469 296H404.908V283.8L406.402 284.422C403.58 288.738 399.721 292.099 394.824 294.506C389.927 296.83 384.408 297.992 378.266 297.992C371.793 297.992 365.776 296.871 360.215 294.631C354.654 292.39 349.799 289.194 345.649 285.045C341.5 280.895 338.263 275.957 335.939 270.23C333.698 264.503 332.578 258.237 332.578 251.432C332.578 244.709 333.739 238.526 336.063 232.882C338.47 227.238 341.79 222.342 346.023 218.192C350.339 214.042 355.401 210.805 361.211 208.482C367.021 206.158 373.37 204.996 380.258 204.996C388.06 204.996 395.197 206.531 401.671 209.602C408.145 212.673 413.373 216.698 417.357 221.678L406.277 232.882C403.372 228.898 399.679 225.745 395.197 223.421C390.799 221.014 385.819 219.81 380.258 219.81C374.449 219.81 369.261 221.18 364.697 223.919C360.215 226.658 356.688 230.392 354.115 235.123C351.542 239.854 350.256 245.29 350.256 251.432C350.256 257.656 351.542 263.175 354.115 267.989C356.688 272.803 360.256 276.579 364.821 279.318C369.386 282.057 374.615 283.426 380.507 283.426C386.317 283.426 391.504 282.181 396.069 279.691C400.634 277.202 403.953 273.633 406.028 268.985L404.783 273.84V260.893H379.138V247.323H420.469V296Z" fill="black"/>
</svg>
