<svg width="39" height="44" viewBox="0 0 39 44" fill="none" xmlns="http://www.w3.org/2000/svg">
<path d="M18.2128 20.5537L0.161133 39.4664C0.363851 40.1848 0.728143 40.8474 1.22616 41.4034C1.72418 41.9594 2.34273 42.3943 3.03455 42.6746C3.72636 42.9549 4.47311 43.0734 5.21772 43.0209C5.96233 42.9684 6.68509 42.7464 7.33073 42.3718L27.6423 30.8037L18.2128 20.5537Z" fill="#EA4335"/>
<path d="M36.4671 17.3386L27.6837 12.3076L17.7969 20.9836L27.7239 30.7762L36.4404 25.7992C37.2126 25.3948 37.8593 24.7869 38.3106 24.0412C38.7619 23.2955 39.0005 22.4404 39.0005 21.5688C39.0005 20.6972 38.7619 19.8422 38.3106 19.0965C37.8593 18.3508 37.2126 17.7428 36.4404 17.3385L36.4671 17.3386Z" fill="#FBBC04"/>
<path d="M0.161531 3.57812C0.0524828 3.98152 -0.00183188 4.39774 4.71297e-05 4.81561V38.2287C0.00112391 38.6464 0.0553884 39.0623 0.161531 39.4663L18.832 21.0379L0.161531 3.57812Z" fill="#4285F4"/>
<path d="M18.3473 21.5222L27.6826 12.308L7.39807 0.686013C6.63487 0.239068 5.76685 0.00236524 4.88242 9.34329e-06C2.6876 -0.00425628 0.758015 1.45245 0.161133 3.5647L18.3473 21.5222Z" fill="#34A853"/>
</svg>
